<svg width="964" height="274" viewBox="0 0 964 274" fill="none" xmlns="http://www.w3.org/2000/svg">
<path opacity="0.12" d="M10.5556 0.888977H21.9713V234.222H10.5556V0.888977Z" fill="#6C5DD3"/>
<path d="M10.5554 118.402C10.5554 115.249 13.1109 112.694 16.2633 112.694C19.4156 112.694 21.9711 115.249 21.9711 118.402V234.222H10.5554V118.402Z" fill="#6C5DD3"/>
<path d="M4.0601 256.879H2.8614L0.386651 258.522V259.74L2.8034 258.136H2.8614V266.778H4.0601V256.879ZM14.6986 256.879V263.955C14.6986 265.188 14.1089 265.85 13.0746 265.85C12.132 265.85 11.4505 265.299 11.4505 264.458H10.2711C10.2711 265.98 11.4505 266.913 13.0746 266.913C14.7953 266.913 15.8973 265.855 15.8973 263.955V256.879H14.6986ZM22.8237 263.742C22.8237 265.134 21.7604 265.772 20.9097 265.772C19.9623 265.772 19.2856 265.076 19.2856 263.994V259.354H18.1449V264.071C18.1449 265.966 19.1503 266.875 20.5423 266.875C21.6637 266.875 22.3984 266.275 22.7464 265.521H22.8237V266.778H23.9644V259.354H22.8237V263.742ZM27.1944 262.312C27.1944 261.016 27.9968 260.282 29.0891 260.282C30.1477 260.282 30.7905 260.973 30.7905 262.138V266.778H31.9312V262.06C31.9312 260.166 30.921 259.257 29.4178 259.257C28.2964 259.257 27.6004 259.76 27.2524 260.514H27.1557V259.354H26.0537V266.778H27.1944V262.312Z" fill="#808191"/>
<path opacity="0.12" d="M41.4158 0.888977H52.8316V234.222H41.4158V0.888977Z" fill="#6C5DD3"/>
<path d="M41.4158 118.402C41.4158 115.249 43.9713 112.694 47.1237 112.694C50.2761 112.694 52.8316 115.249 52.8316 118.402V234.222H41.4158V118.402Z" fill="#6C5DD3"/>
<path opacity="0.12" d="M72.276 0.888977H83.6918V234.222H72.276V0.888977Z" fill="#6C5DD3"/>
<path d="M72.2759 146.596C72.2759 143.444 74.8315 140.888 77.9838 140.888C81.1362 140.888 83.6917 143.444 83.6917 146.596V234.222H72.2759V146.596Z" fill="#6C5DD3"/>
<path opacity="0.12" d="M103.136 0.888977H114.552V234.222H103.136V0.888977Z" fill="#6C5DD3"/>
<path d="M103.136 160.208C103.136 157.055 105.692 154.5 108.844 154.5C111.997 154.5 114.552 157.055 114.552 160.208V234.222H103.136V160.208Z" fill="#6C5DD3"/>
<path opacity="0.12" d="M133.996 0.888977H145.412V234.222H133.996V0.888977Z" fill="#6C5DD3"/>
<path d="M133.996 118.402C133.996 115.249 136.552 112.694 139.704 112.694C142.857 112.694 145.412 115.249 145.412 118.402V234.222H133.996V118.402Z" fill="#6C5DD3"/>
<path opacity="0.12" d="M164.857 0.888977H176.272V234.222H164.857V0.888977Z" fill="#6C5DD3"/>
<path d="M164.857 160.208C164.857 157.055 167.412 154.5 170.564 154.5C173.717 154.5 176.272 157.055 176.272 160.208V234.222H164.857V160.208Z" fill="#6C5DD3"/>
<path d="M156.998 266.913C158.883 266.913 160.265 265.521 160.265 263.626C160.265 261.708 158.931 260.301 157.114 260.301C156.446 260.301 155.799 260.538 155.393 260.862H155.335L155.683 257.942H159.82V256.879H154.677L154.078 261.751L155.199 261.886C155.61 261.592 156.311 261.379 156.92 261.384C158.182 261.393 159.105 262.35 159.105 263.646C159.105 264.917 158.216 265.85 156.998 265.85C155.982 265.85 155.175 265.197 155.083 264.303H153.923C153.996 265.811 155.296 266.913 156.998 266.913ZM169.977 256.879V263.955C169.977 265.188 169.387 265.85 168.353 265.85C167.41 265.85 166.729 265.299 166.729 264.458H165.549C165.549 265.98 166.729 266.913 168.353 266.913C170.073 266.913 171.175 265.855 171.175 263.955V256.879H169.977ZM178.102 263.742C178.102 265.134 177.038 265.772 176.188 265.772C175.24 265.772 174.564 265.076 174.564 263.994V259.354H173.423V264.071C173.423 265.966 174.428 266.875 175.82 266.875C176.942 266.875 177.676 266.275 178.024 265.521H178.102V266.778H179.242V259.354H178.102V263.742ZM182.472 262.312C182.472 261.016 183.275 260.282 184.367 260.282C185.426 260.282 186.069 260.973 186.069 262.138V266.778H187.209V262.06C187.209 260.166 186.199 259.257 184.696 259.257C183.574 259.257 182.878 259.76 182.53 260.514H182.434V259.354H181.332V266.778H182.472V262.312Z" fill="#808191"/>
<path opacity="0.12" d="M195.717 0.888977H207.133V234.222H195.717V0.888977Z" fill="#6C5DD3"/>
<path d="M195.717 118.402C195.717 115.249 198.272 112.694 201.425 112.694C204.577 112.694 207.133 115.249 207.133 118.402V234.222H195.717V118.402Z" fill="#6C5DD3"/>
<path opacity="0.12" d="M226.577 0.888977H237.993V234.222H226.577V0.888977Z" fill="#6C5DD3"/>
<path d="M226.577 111.596C226.577 108.444 229.133 105.889 232.285 105.889C235.437 105.889 237.993 108.444 237.993 111.596V234.222H226.577V111.596Z" fill="#6C5DD3"/>
<path opacity="0.12" d="M257.437 0.888977H268.853V234.222H257.437V0.888977Z" fill="#6C5DD3"/>
<path d="M257.437 118.402C257.437 115.249 259.993 112.694 263.145 112.694C266.298 112.694 268.853 115.249 268.853 118.402V234.222H257.437V118.402Z" fill="#6C5DD3"/>
<path opacity="0.12" d="M288.298 0.888977H299.713V234.222H288.298V0.888977Z" fill="#6C5DD3"/>
<path d="M288.298 111.596C288.298 108.444 290.853 105.889 294.005 105.889C297.158 105.889 299.713 108.444 299.713 111.596V234.222H288.298V111.596Z" fill="#6C5DD3"/>
<path opacity="0.12" d="M319.158 0.888977H330.574V234.222H319.158V0.888977Z" fill="#6C5DD3"/>
<path d="M319.158 84.374C319.158 81.2216 321.713 78.6661 324.866 78.6661C328.018 78.6661 330.574 81.2217 330.574 84.374V234.222H319.158V84.374Z" fill="#6C5DD3"/>
<path d="M308.409 256.879H307.21L304.735 258.522V259.74L307.152 258.136H307.21V266.778H308.409V256.879ZM314.485 266.913C316.669 266.913 317.926 265.062 317.926 261.828C317.926 258.619 316.65 256.744 314.485 256.744C312.319 256.744 311.043 258.619 311.043 261.828C311.043 265.062 312.3 266.913 314.485 266.913ZM314.485 265.85C313.044 265.85 312.203 264.405 312.203 261.828C312.203 259.257 313.054 257.788 314.485 257.788C315.915 257.788 316.766 259.257 316.766 261.828C316.766 264.405 315.925 265.85 314.485 265.85ZM327.554 256.879V263.955C327.554 265.188 326.965 265.85 325.93 265.85C324.988 265.85 324.306 265.299 324.306 264.458H323.127C323.127 265.98 324.306 266.913 325.93 266.913C327.651 266.913 328.753 265.855 328.753 263.955V256.879H327.554ZM335.679 263.742C335.679 265.134 334.616 265.772 333.765 265.772C332.818 265.772 332.141 265.076 332.141 263.994V259.354H331.001V264.071C331.001 265.966 332.006 266.875 333.398 266.875C334.519 266.875 335.254 266.275 335.602 265.521H335.679V266.778H336.82V259.354H335.679V263.742ZM340.05 262.312C340.05 261.016 340.852 260.282 341.945 260.282C343.003 260.282 343.646 260.973 343.646 262.138V266.778H344.787V262.06C344.787 260.166 343.777 259.257 342.273 259.257C341.152 259.257 340.456 259.76 340.108 260.514H340.011V259.354H338.909V266.778H340.05V262.312Z" fill="#808191"/>
<path opacity="0.12" d="M350.018 0.888977H361.434V234.222H350.018V0.888977Z" fill="#6C5DD3"/>
<path d="M350.018 118.402C350.018 115.249 352.574 112.694 355.726 112.694C358.878 112.694 361.434 115.249 361.434 118.402V234.222H350.018V118.402Z" fill="#6C5DD3"/>
<path opacity="0.12" d="M380.878 0.888977H392.294V234.222H380.878V0.888977Z" fill="#6C5DD3"/>
<path d="M380.878 118.402C380.878 115.249 383.434 112.694 386.586 112.694C389.738 112.694 392.294 115.249 392.294 118.402V234.222H380.878V118.402Z" fill="#6C5DD3"/>
<path opacity="0.12" d="M411.738 0.888977H423.154V234.222H411.738V0.888977Z" fill="#6C5DD3"/>
<path d="M411.739 111.596C411.739 108.444 414.294 105.889 417.446 105.889C420.599 105.889 423.154 108.444 423.154 111.596V234.222H411.739V111.596Z" fill="#6C5DD3"/>
<path opacity="0.12" d="M442.599 0.888977H454.014V234.222H442.599V0.888977Z" fill="#6C5DD3"/>
<path d="M442.599 118.402C442.599 115.249 445.154 112.694 448.307 112.694C451.459 112.694 454.014 115.249 454.014 118.402V234.222H442.599V118.402Z" fill="#6C5DD3"/>
<path opacity="0.12" d="M473.459 0.888977H484.875V234.222H473.459V0.888977Z" fill="#6C5DD3"/>
<path d="M473.459 45.4854C473.459 42.333 476.014 39.7775 479.167 39.7775C482.319 39.7775 484.875 42.333 484.875 45.4854V234.222H473.459V45.4854Z" fill="#6C5DD3"/>
<path d="M462.823 256.879H461.624L459.149 258.522V259.74L461.566 258.136H461.624V266.778H462.823V256.879ZM468.763 266.913C470.648 266.913 472.031 265.521 472.031 263.626C472.031 261.708 470.697 260.301 468.879 260.301C468.212 260.301 467.565 260.538 467.158 260.862H467.1L467.448 257.942H471.586V256.879H466.443L465.844 261.751L466.965 261.886C467.376 261.592 468.077 261.379 468.686 261.384C469.947 261.393 470.871 262.35 470.871 263.646C470.871 264.917 469.981 265.85 468.763 265.85C467.748 265.85 466.941 265.197 466.849 264.303H465.689C465.762 265.811 467.062 266.913 468.763 266.913ZM481.742 256.879V263.955C481.742 265.188 481.153 265.85 480.118 265.85C479.176 265.85 478.494 265.299 478.494 264.458H477.315C477.315 265.98 478.494 266.913 480.118 266.913C481.839 266.913 482.941 265.855 482.941 263.955V256.879H481.742ZM489.867 263.742C489.867 265.134 488.804 265.772 487.953 265.772C487.006 265.772 486.329 265.076 486.329 263.994V259.354H485.189V264.071C485.189 265.966 486.194 266.875 487.586 266.875C488.707 266.875 489.442 266.275 489.79 265.521H489.867V266.778H491.008V259.354H489.867V263.742ZM494.238 262.312C494.238 261.016 495.04 260.282 496.133 260.282C497.191 260.282 497.834 260.973 497.834 262.138V266.778H498.975V262.06C498.975 260.166 497.965 259.257 496.462 259.257C495.34 259.257 494.644 259.76 494.296 260.514H494.199V259.354H493.097V266.778H494.238V262.312Z" fill="#808191"/>
<path opacity="0.12" d="M504.319 0.888977H515.735V234.222H504.319V0.888977Z" fill="#6C5DD3"/>
<path d="M504.319 79.5132C504.319 76.3608 506.875 73.8053 510.027 73.8053C513.179 73.8053 515.735 76.3608 515.735 79.5132V234.222H504.319V79.5132Z" fill="#6C5DD3"/>
<path opacity="0.12" d="M535.179 0.888977H546.595V234.222H535.179V0.888977Z" fill="#6C5DD3"/>
<path d="M535.179 45.4854C535.179 42.333 537.735 39.7775 540.887 39.7775C544.04 39.7775 546.595 42.333 546.595 45.4854V234.222H535.179V45.4854Z" fill="#6C5DD3"/>
<path opacity="0.12" d="M566.04 0.888977H577.455V234.222H566.04V0.888977Z" fill="#6C5DD3"/>
<path d="M566.04 79.5132C566.04 76.3608 568.595 73.8053 571.748 73.8053C574.9 73.8053 577.455 76.3608 577.455 79.5132V234.222H566.04V79.5132Z" fill="#6C5DD3"/>
<path opacity="0.12" d="M596.9 0.888977H608.316V234.222H596.9V0.888977Z" fill="#6C5DD3"/>
<path d="M596.9 79.5132C596.9 76.3608 599.455 73.8053 602.608 73.8053C605.76 73.8053 608.315 76.3608 608.315 79.5132V234.222H596.9V79.5132Z" fill="#6C5DD3"/>
<path opacity="0.12" d="M627.76 0.888977H639.176V234.222H627.76V0.888977Z" fill="#6C5DD3"/>
<path d="M627.76 79.5132C627.76 76.3608 630.316 73.8053 633.468 73.8053C636.62 73.8053 639.176 76.3608 639.176 79.5132V234.222H627.76V79.5132Z" fill="#6C5DD3"/>
<path d="M612.574 266.778H618.819V265.714H614.217V265.637L616.441 263.259C618.142 261.437 618.645 260.586 618.645 259.489C618.645 257.962 617.407 256.744 615.667 256.744C613.932 256.744 612.613 257.923 612.613 259.663H613.753C613.753 258.537 614.483 257.788 615.629 257.788C616.702 257.788 617.523 258.445 617.523 259.489C617.523 260.402 616.987 261.079 615.841 262.331L612.574 265.908V266.778ZM624.044 266.913C626.229 266.913 627.485 265.062 627.485 261.828C627.485 258.619 626.209 256.744 624.044 256.744C621.878 256.744 620.602 258.619 620.602 261.828C620.602 265.062 621.859 266.913 624.044 266.913ZM624.044 265.85C622.603 265.85 621.762 264.405 621.762 261.828C621.762 259.257 622.613 257.788 624.044 257.788C625.475 257.788 626.325 259.257 626.325 261.828C626.325 264.405 625.484 265.85 624.044 265.85ZM637.114 256.879V263.955C637.114 265.188 636.524 265.85 635.49 265.85C634.547 265.85 633.865 265.299 633.865 264.458H632.686C632.686 265.98 633.865 266.913 635.49 266.913C637.21 266.913 638.312 265.855 638.312 263.955V256.879H637.114ZM645.239 263.742C645.239 265.134 644.175 265.772 643.325 265.772C642.377 265.772 641.701 265.076 641.701 263.994V259.354H640.56V264.071C640.56 265.966 641.565 266.875 642.957 266.875C644.079 266.875 644.813 266.275 645.161 265.521H645.239V266.778H646.379V259.354H645.239V263.742ZM649.609 262.312C649.609 261.016 650.412 260.282 651.504 260.282C652.563 260.282 653.205 260.973 653.205 262.138V266.778H654.346V262.06C654.346 260.166 653.336 259.257 651.833 259.257C650.711 259.257 650.015 259.76 649.667 260.514H649.571V259.354H648.469V266.778H649.609V262.312Z" fill="#808191"/>
<path opacity="0.12" d="M658.62 0.888977H670.036V234.222H658.62V0.888977Z" fill="#6C5DD3"/>
<path d="M658.62 204.93C658.62 201.777 661.176 199.222 664.328 199.222C667.481 199.222 670.036 201.777 670.036 204.93V234.222H658.62V204.93Z" fill="#6C5DD3"/>
<path opacity="0.12" d="M689.481 0.888977H700.896V234.222H689.481V0.888977Z" fill="#6C5DD3"/>
<path d="M689.48 204.93C689.48 201.777 692.036 199.222 695.188 199.222C698.341 199.222 700.896 201.777 700.896 204.93V234.222H689.48V204.93Z" fill="#6C5DD3"/>
<path opacity="0.12" d="M720.341 0.888977H731.756V234.222H720.341V0.888977Z" fill="#6C5DD3"/>
<path d="M720.341 79.5132C720.341 76.3608 722.896 73.8053 726.049 73.8053C729.201 73.8053 731.757 76.3608 731.757 79.5132V234.222H720.341V79.5132Z" fill="#6C5DD3"/>
<path opacity="0.12" d="M751.201 0.888977H762.617V234.222H751.201V0.888977Z" fill="#6C5DD3"/>
<path d="M751.201 113.541C751.201 110.389 753.756 107.833 756.909 107.833C760.061 107.833 762.617 110.389 762.617 113.541V234.222H751.201V113.541Z" fill="#6C5DD3"/>
<path opacity="0.12" d="M782.061 0.888977H793.477V234.222H782.061V0.888977Z" fill="#6C5DD3"/>
<path d="M782.061 146.596C782.061 143.444 784.617 140.888 787.769 140.888C790.921 140.888 793.477 143.444 793.477 146.596V234.222H782.061V146.596Z" fill="#6C5DD3"/>
<path d="M766.988 266.778H773.233V265.714H768.631V265.637L770.855 263.259C772.556 261.437 773.059 260.586 773.059 259.489C773.059 257.962 771.822 256.744 770.081 256.744C768.346 256.744 767.027 257.923 767.027 259.663H768.167C768.167 258.537 768.897 257.788 770.043 257.788C771.116 257.788 771.938 258.445 771.938 259.489C771.938 260.402 771.401 261.079 770.255 262.331L766.988 265.908V266.778ZM778.323 266.913C780.208 266.913 781.59 265.521 781.59 263.626C781.59 261.708 780.256 260.301 778.439 260.301C777.772 260.301 777.124 260.538 776.718 260.862H776.66L777.008 257.942H781.145V256.879H776.003L775.403 261.751L776.525 261.886C776.935 261.592 777.636 261.379 778.245 261.384C779.507 261.393 780.43 262.35 780.43 263.646C780.43 264.917 779.541 265.85 778.323 265.85C777.308 265.85 776.5 265.197 776.409 264.303H775.248C775.321 265.811 776.621 266.913 778.323 266.913ZM791.302 256.879V263.955C791.302 265.188 790.712 265.85 789.678 265.85C788.735 265.85 788.054 265.299 788.054 264.458H786.874C786.874 265.98 788.054 266.913 789.678 266.913C791.398 266.913 792.5 265.855 792.5 263.955V256.879H791.302ZM799.427 263.742C799.427 265.134 798.363 265.772 797.513 265.772C796.565 265.772 795.889 265.076 795.889 263.994V259.354H794.748V264.071C794.748 265.966 795.753 266.875 797.145 266.875C798.267 266.875 799.001 266.275 799.349 265.521H799.427V266.778H800.568V259.354H799.427V263.742ZM803.798 262.312C803.798 261.016 804.6 260.282 805.692 260.282C806.751 260.282 807.394 260.973 807.394 262.138V266.778H808.534V262.06C808.534 260.166 807.524 259.257 806.021 259.257C804.9 259.257 804.204 259.76 803.856 260.514H803.759V259.354H802.657V266.778H803.798V262.312Z" fill="#808191"/>
<path opacity="0.12" d="M812.921 0.888977H824.337V234.222H812.921V0.888977Z" fill="#6C5DD3"/>
<path d="M812.921 106.736C812.921 103.583 815.477 101.028 818.629 101.028C821.782 101.028 824.337 103.583 824.337 106.736V234.222H812.921V106.736Z" fill="#6C5DD3"/>
<path opacity="0.12" d="M843.782 0.888977H855.197V234.222H843.782V0.888977Z" fill="#6C5DD3"/>
<path d="M843.781 106.736C843.781 103.583 846.337 101.028 849.489 101.028C852.642 101.028 855.197 103.583 855.197 106.736V234.222H843.781V106.736Z" fill="#6C5DD3"/>
<path opacity="0.12" d="M874.642 0.888977H886.057V234.222H874.642V0.888977Z" fill="#6C5DD3"/>
<path d="M874.642 71.7352C874.642 68.5828 877.198 66.0273 880.35 66.0273C883.502 66.0273 886.058 68.5828 886.058 71.7352V234.222H874.642V71.7352Z" fill="#6C5DD3"/>
<path opacity="0.12" d="M905.502 0.888977H916.918V234.222H905.502V0.888977Z" fill="#6C5DD3"/>
<path d="M905.502 125.208C905.502 122.055 908.057 119.5 911.21 119.5C914.362 119.5 916.918 122.055 916.918 125.208V234.222H905.502V125.208Z" fill="#6C5DD3"/>
<path opacity="0.12" d="M936.362 0.888977H947.778V234.222H936.362V0.888977Z" fill="#6C5DD3"/>
<path d="M936.362 106.736C936.362 103.583 938.918 101.028 942.07 101.028C945.222 101.028 947.778 103.583 947.778 106.736V234.222H936.362V106.736Z" fill="#6C5DD3"/>
<path d="M924.308 266.913C926.227 266.913 927.653 265.71 927.653 264.09C927.653 262.834 926.909 261.92 925.662 261.712V261.635C926.662 261.331 927.286 260.509 927.286 259.392C927.286 257.991 926.179 256.744 924.347 256.744C922.636 256.744 921.215 257.797 921.157 259.354H922.317C922.36 258.368 923.298 257.788 924.328 257.788C925.42 257.788 926.126 258.45 926.126 259.45C926.126 260.494 925.309 261.171 924.134 261.171H923.342V262.234H924.134C925.638 262.234 926.474 262.998 926.474 264.09C926.474 265.139 925.56 265.85 924.289 265.85C923.143 265.85 922.235 265.26 922.162 264.303H920.944C921.017 265.859 922.389 266.913 924.308 266.913ZM932.859 266.913C935.044 266.913 936.3 265.062 936.3 261.828C936.3 258.619 935.024 256.744 932.859 256.744C930.693 256.744 929.417 258.619 929.417 261.828C929.417 265.062 930.674 266.913 932.859 266.913ZM932.859 265.85C931.418 265.85 930.577 264.405 930.577 261.828C930.577 259.257 931.428 257.788 932.859 257.788C934.29 257.788 935.14 259.257 935.14 261.828C935.14 264.405 934.299 265.85 932.859 265.85ZM945.929 256.879V263.955C945.929 265.188 945.339 265.85 944.304 265.85C943.362 265.85 942.68 265.299 942.68 264.458H941.501C941.501 265.98 942.68 266.913 944.304 266.913C946.025 266.913 947.127 265.855 947.127 263.955V256.879H945.929ZM954.054 263.742C954.054 265.134 952.99 265.772 952.14 265.772C951.192 265.772 950.516 265.076 950.516 263.994V259.354H949.375V264.071C949.375 265.966 950.38 266.875 951.772 266.875C952.894 266.875 953.628 266.275 953.976 265.521H954.054V266.778H955.194V259.354H954.054V263.742ZM958.424 262.312C958.424 261.016 959.227 260.282 960.319 260.282C961.378 260.282 962.02 260.973 962.02 262.138V266.778H963.161V262.06C963.161 260.166 962.151 259.257 960.648 259.257C959.526 259.257 958.83 259.76 958.482 260.514H958.386V259.354H957.284V266.778H958.424V262.312Z" fill="#808191"/>
</svg>
