<svg width="36" height="258" viewBox="0 0 36 258" fill="none" xmlns="http://www.w3.org/2000/svg">
<path d="M7.84889 7.98999H6.14267L3.68242 9.57054V11.2139L5.99766 9.73488H6.05566V17.889H7.84889V7.98999ZM14.0213 18.0775C16.409 18.0823 17.8349 16.1973 17.8349 12.9491C17.8349 9.72038 16.3993 7.85465 14.0213 7.85465C11.6432 7.85465 10.2125 9.71554 10.2076 12.9491C10.2076 16.1924 11.6335 18.0775 14.0213 18.0775ZM14.0213 16.5646C12.7887 16.5646 12.0154 15.3272 12.0202 12.9491C12.025 10.5904 12.7935 9.3482 14.0213 9.3482C15.2538 9.3482 16.0223 10.5904 16.0272 12.9491C16.0272 15.3272 15.2586 16.5646 14.0213 16.5646ZM23.0998 18.0775C25.4875 18.0823 26.9134 16.1973 26.9134 12.9491C26.9134 9.72038 25.4778 7.85465 23.0998 7.85465C20.7217 7.85465 19.291 9.71554 19.2861 12.9491C19.2861 16.1924 20.712 18.0775 23.0998 18.0775ZM23.0998 16.5646C21.8672 16.5646 21.0939 15.3272 21.0987 12.9491C21.1035 10.5904 21.8721 9.3482 23.0998 9.3482C24.3323 9.3482 25.1008 10.5904 25.1057 12.9491C25.1057 15.3272 24.3371 16.5646 23.0998 16.5646ZM28.5386 17.889H30.2884V15.3949L30.9264 14.7134L33.1981 17.889H35.291L32.2459 13.6693L35.1219 10.4647H33.0773L30.4092 13.447H30.2884V7.98999H28.5386V17.889Z" fill="#1B1D21"/>
<path d="M14.1735 64.691C16.3147 64.691 17.847 63.5116 17.8518 61.9021C17.847 60.6647 16.9334 59.6303 15.7831 59.437V59.3693C16.7836 59.147 17.4796 58.2479 17.4845 57.1749C17.4796 55.6524 16.0779 54.5213 14.1735 54.5213C12.2546 54.5213 10.8529 55.6475 10.8577 57.1749C10.8529 58.2479 11.5393 59.147 12.5591 59.3693V59.437C11.3894 59.6303 10.4856 60.6647 10.4904 61.9021C10.4856 63.5116 12.0129 64.691 14.1735 64.691ZM14.1735 63.3086C13.0521 63.3086 12.3271 62.6899 12.3368 61.7764C12.3271 60.829 13.1053 60.1572 14.1735 60.1572C15.2272 60.1572 16.0006 60.8339 16.0102 61.7764C16.0006 62.6899 15.2804 63.3086 14.1735 63.3086ZM14.1735 58.799C13.2551 58.799 12.5978 58.2044 12.6075 57.3441C12.5978 56.4934 13.2358 55.923 14.1735 55.923C15.0967 55.923 15.7299 56.4934 15.7396 57.3441C15.7299 58.2093 15.0774 58.799 14.1735 58.799ZM23.0998 64.7441C25.4875 64.749 26.9134 62.8639 26.9134 59.6158C26.9134 56.387 25.4778 54.5213 23.0998 54.5213C20.7217 54.5213 19.291 56.3822 19.2861 59.6158C19.2861 62.8591 20.712 64.7441 23.0998 64.7441ZM23.0998 63.2313C21.8672 63.2313 21.0939 61.9939 21.0987 59.6158C21.1035 57.2571 21.8721 56.0149 23.0998 56.0149C24.3323 56.0149 25.1008 57.2571 25.1057 59.6158C25.1057 61.9939 24.3371 63.2313 23.0998 63.2313ZM28.5386 64.5556H30.2884V62.0616L30.9264 61.38L33.1981 64.5556H35.291L32.2459 60.336L35.1219 57.1314H33.0773L30.4092 60.1137H30.2884V54.6567H28.5386V64.5556Z" fill="#1B1D21"/>
<path d="M14.24 111.358C16.3764 111.372 17.8119 109.903 17.8071 107.945C17.8119 106.075 16.4779 104.721 14.7427 104.721C13.6793 104.721 12.7416 105.238 12.2679 106.089H12.2002C12.2051 104.006 12.9688 102.74 14.3415 102.74C15.1922 102.74 15.7674 103.233 15.951 103.991H17.7153C17.5026 102.392 16.212 101.188 14.3415 101.188C11.9634 101.188 10.4602 103.17 10.4602 106.553C10.4554 110.183 12.3404 111.348 14.24 111.358ZM14.2303 109.908C13.1718 109.908 12.3984 109.033 12.3936 107.998C12.4032 106.959 13.2056 106.089 14.2545 106.089C15.3033 106.089 16.0719 106.92 16.067 107.984C16.0719 109.067 15.2792 109.908 14.2303 109.908ZM23.0998 111.411C25.4875 111.416 26.9134 109.531 26.9134 106.282C26.9134 103.054 25.4778 101.188 23.0998 101.188C20.7217 101.188 19.291 103.049 19.2861 106.282C19.2861 109.526 20.712 111.411 23.0998 111.411ZM23.0998 109.898C21.8672 109.898 21.0939 108.661 21.0987 106.282C21.1035 103.924 21.8721 102.682 23.0998 102.682C24.3323 102.682 25.1008 103.924 25.1057 106.282C25.1057 108.661 24.3371 109.898 23.0998 109.898ZM28.5387 111.222H30.2884V108.728L30.9264 108.047L33.1981 111.222H35.291L32.2459 107.003L35.1219 103.798H33.0773L30.4092 106.78H30.2884V101.323H28.5387V111.222Z" fill="#1B1D21"/>
<path d="M10.1968 156.052H14.9191V157.889H16.6301V156.052H17.8965V154.578H16.6301V147.99H14.3971L10.1968 154.626V156.052ZM14.9384 154.578H12.0335V154.501L14.8611 150.02H14.9384V154.578ZM23.0998 158.077C25.4875 158.082 26.9134 156.197 26.9134 152.949C26.9134 149.72 25.4778 147.855 23.0998 147.855C20.7217 147.855 19.291 149.715 19.2861 152.949C19.2861 156.192 20.712 158.077 23.0998 158.077ZM23.0998 156.565C21.8672 156.565 21.0939 155.327 21.0987 152.949C21.1035 150.59 21.8721 149.348 23.0998 149.348C24.3323 149.348 25.1008 150.59 25.1057 152.949C25.1057 155.327 24.3371 156.565 23.0998 156.565ZM28.5387 157.889H30.2884V155.395L30.9264 154.713L33.1981 157.889H35.291L32.2459 153.669L35.1219 150.465H33.0773L30.4092 153.447H30.2884V147.99H28.5387V157.889Z" fill="#1B1D21"/>
<path d="M10.987 204.556H17.7733V203.057H13.4618V202.99L15.168 201.254C17.0917 199.408 17.6234 198.509 17.6234 197.392C17.6234 195.734 16.2749 194.521 14.2835 194.521C12.3211 194.521 10.929 195.739 10.929 197.62H12.6353C12.6353 196.609 13.2733 195.976 14.2593 195.976C15.2018 195.976 15.9027 196.551 15.9027 197.484C15.9027 198.311 15.4 198.9 14.4236 199.891L10.987 203.26V204.556ZM23.0998 204.744C25.4875 204.749 26.9134 202.864 26.9134 199.616C26.9134 196.387 25.4778 194.521 23.0998 194.521C20.7217 194.521 19.291 196.382 19.2861 199.616C19.2861 202.859 20.712 204.744 23.0998 204.744ZM23.0998 203.231C21.8672 203.231 21.0939 201.994 21.0987 199.616C21.1035 197.257 21.8721 196.015 23.0998 196.015C24.3323 196.015 25.1008 197.257 25.1057 199.616C25.1057 201.994 24.3371 203.231 23.0998 203.231ZM28.5386 204.556H30.2884V202.062L30.9264 201.38L33.1981 204.556H35.291L32.2459 200.336L35.1219 197.131H33.0773L30.4092 200.114H30.2884V194.657H28.5386V204.556Z" fill="#1B1D21"/>
<path d="M30.8491 251.411C33.2368 251.416 34.6627 249.531 34.6627 246.282C34.6627 243.054 33.2271 241.188 30.8491 241.188C28.471 241.188 27.0403 243.049 27.0354 246.282C27.0354 249.526 28.4613 251.411 30.8491 251.411ZM30.8491 249.898C29.6165 249.898 28.8432 248.661 28.848 246.282C28.8528 243.924 29.6214 242.682 30.8491 242.682C32.0816 242.682 32.8501 243.924 32.855 246.282C32.855 248.661 32.0864 249.898 30.8491 249.898Z" fill="#1B1D21"/>
</svg>
